<svg width="26" height="26" viewBox="0 0 26 26" fill="none" xmlns="http://www.w3.org/2000/svg">
<path d="M1 4.8C1 4.35817 1.35817 4 1.8 4H24.2C24.6418 4 25 4.35817 25 4.8V9H1V4.8Z" fill="white"/>
<path d="M1 11H25V16H1V11Z" fill="white"/>
<path fill-rule="evenodd" clip-rule="evenodd" d="M25 16H1V21.2C1 21.6418 1.35817 22 1.8 22H24.2C24.6418 22 25 21.6418 25 21.2V16ZM19.2 18C19.0895 18 19 18.0895 19 18.2V19.8C19 19.9105 19.0895 20 19.2 20H22.8C22.9105 20 23 19.9105 23 19.8V18.2C23 18.0895 22.9105 18 22.8 18H19.2Z" fill="white"/>
</svg>
