<svg width="95" height="11" viewBox="0 0 95 11" fill="none" xmlns="http://www.w3.org/2000/svg">
<path fill-rule="evenodd" clip-rule="evenodd" d="M7.91862 1.84143L5.86264 7.12525L5.64308 6.05143C5.26112 4.81366 4.06891 3.47243 2.73535 2.80092L4.61509 9.57781L6.83649 9.57478L10.1424 1.84143H7.91862ZM22.1894 6.77134C22.3633 6.32487 23.0255 4.60554 23.0255 4.60554C23.0141 4.62611 23.1982 4.15665 23.304 3.86566L23.446 4.53416C23.446 4.53416 23.8478 6.38355 23.9326 6.77134H22.1894ZM24.7753 1.84143H23.153C22.6501 1.84143 22.2742 1.97936 22.0534 2.48391L18.9352 9.58446H21.1403C21.1403 9.58446 21.5 8.62982 21.5824 8.41989C21.823 8.41989 23.965 8.42352 24.2712 8.42352C24.3338 8.69516 24.5263 9.58446 24.5263 9.58446H26.4752L24.7753 1.84143ZM16.2468 4.10679C16.2468 3.79547 16.6275 3.4619 17.4498 3.4619C18.1355 3.45137 18.6336 3.59708 19.0204 3.74924L19.2093 3.83585L19.4938 2.21132C19.0781 2.05917 18.4261 1.89648 17.6116 1.89648C15.537 1.89648 14.0753 2.91298 14.0627 4.37014C14.0506 5.44632 15.1057 6.04791 15.9021 6.40606C16.7202 6.77356 16.9951 7.00764 16.9915 7.33594C16.9854 7.83805 16.3382 8.06745 15.7343 8.06745C14.8946 8.06745 14.4476 7.9545 13.7583 7.67419L13.4882 7.55539L13.1935 9.23317C13.6831 9.44267 14.5902 9.6235 15.5322 9.63286C17.7397 9.63286 19.172 8.62807 19.1882 7.07202C19.1966 6.21996 18.6372 5.57097 17.4264 5.0361C16.6919 4.68907 16.242 4.45792 16.2468 4.10679ZM9.70741 9.5887H11.8055L13.1204 1.84143H11.0193L9.70741 9.5887Z" fill="#00579F"/>
<path fill-rule="evenodd" clip-rule="evenodd" d="M3.95597 1.77081H0.568834L0.542969 1.93174C3.17701 2.57361 4.92081 4.12355 5.64323 5.98565L4.90757 2.42479C4.78065 1.93416 4.41192 1.78775 3.95597 1.77081Z" fill="#F9A51A"/>
<ellipse cx="43.3634" cy="5.67074" rx="5.14121" ry="5.17074" fill="#EC221C"/>
<ellipse cx="49.4564" cy="5.67074" rx="5.14121" ry="5.17074" fill="#F79F19"/>
<path fill-rule="evenodd" clip-rule="evenodd" d="M46.2194 9.69258C47.3781 8.76149 48.1237 7.30623 48.1237 5.6708C48.1237 4.03539 47.3781 2.58014 46.2195 1.64905C45.0608 2.58014 44.3152 4.0354 44.3152 5.67083C44.3152 7.30624 45.0608 8.76149 46.2194 9.69258Z" fill="#FE5F03"/>
<path d="M70.2824 1.64899H72.211V8.04713H68.7576L70.2824 1.64899Z" fill="#FFD233"/>
<path fill-rule="evenodd" clip-rule="evenodd" d="M94.9451 4.9758C94.9849 4.80459 95.0001 4.62661 95.0001 4.45119C95.0001 4.16291 94.9219 3.90016 94.702 3.70558C94.4777 3.50731 94.1983 3.43811 93.9039 3.43811H89.9199L89.6895 4.36935C89.6723 4.43957 89.6588 4.50979 89.6588 4.58244C89.6588 4.66709 89.6742 4.76169 89.7441 4.81761C89.8274 4.884 89.998 4.89383 90.0992 4.89383H91.6866C91.7908 4.89383 91.8976 4.91784 91.968 5.0007C92.0426 5.08828 92.0638 5.23459 92.0644 5.34656L92.0619 5.35856L91.2448 9.36978C91.2693 9.61338 91.4703 9.66662 91.7086 9.66662H94.3185L94.3338 9.59499C94.1389 9.56461 93.9867 9.45762 93.9867 9.22398C93.9867 9.12899 94.0038 9.02787 94.0253 8.93569L94.9451 4.9758ZM90.9477 8.25846C90.7658 8.25846 90.6417 8.17215 90.6096 8.01167C90.6041 7.98447 90.6013 7.95511 90.6013 7.92383C90.6013 7.88182 90.6042 7.84033 90.6096 7.79909C90.614 7.76513 90.6201 7.7313 90.6278 7.69746L90.7232 7.2801C90.7962 6.96028 90.9576 6.64697 91.3272 6.64697L91.5601 5.66632H89.9802C89.5046 5.66632 89.0587 5.78697 88.7057 6.11866C88.3733 6.43082 88.1674 6.89108 88.0424 7.3419C88.0106 7.45616 87.9842 7.56966 87.9621 7.68023C87.9123 7.93047 87.8569 8.2379 87.8569 8.4944C87.8569 8.74706 87.8867 9.08144 88.0424 9.30563C88.0698 9.34521 88.1011 9.38121 88.1369 9.41287C88.3662 9.61498 88.6954 9.66656 88.9906 9.66656H89.4794C89.7071 9.66656 89.9818 9.65813 90.2022 9.59698C90.3555 9.55434 90.4919 9.48131 90.6042 9.36793L90.6096 9.36257C90.7475 9.22162 90.866 9.0319 90.963 8.86146L90.9933 8.80796H90.995L90.999 8.79724L91.0964 8.25424C91.0757 8.25705 91.054 8.25846 91.0311 8.25846H90.9477ZM88.0425 2.50018C88.1123 2.21905 88.179 1.93357 88.228 1.64899H84.2996C83.9478 1.64899 83.616 1.73006 83.3019 1.88812C82.9625 2.05907 82.6887 2.31825 82.4656 2.62338C82.1998 2.98725 82.0346 3.41738 81.9352 3.85453L81.2814 6.72882C81.2407 6.90757 81.2005 7.09461 81.1676 7.28382C81.1227 7.54197 81.0913 7.80421 81.0913 8.05521C81.0913 8.25221 81.1123 8.4533 81.1676 8.64366C81.1967 8.74375 81.2353 8.84079 81.2852 8.93284C81.4249 9.1901 81.6617 9.35837 81.9267 9.47034C82.3043 9.62967 82.7733 9.66657 83.1789 9.66657H85.861C86.109 9.66657 86.478 9.64372 86.6874 9.49358C86.8617 9.36871 86.9507 9.17822 86.9976 8.97369L87.3116 7.60262H87.2398C87.1847 7.69977 87.0879 7.76706 86.9859 7.81366C86.8515 7.87494 86.7105 7.91069 86.5623 7.91069H85.0264C84.6281 7.91069 84.3125 7.75276 84.3125 7.31574C84.3125 7.2316 84.3322 7.14465 84.3511 7.06307L85.0088 4.23831C85.0621 4.00978 85.1418 3.75418 85.3075 3.5808C85.4865 3.39363 85.7554 3.3432 86.004 3.3432H87.2318C87.3633 3.3432 87.526 3.33069 87.6455 3.27094C87.7339 3.22676 87.8057 3.16472 87.8553 3.07854C87.917 2.97104 87.9572 2.83941 87.9874 2.71965C88.0058 2.64688 88.0242 2.57372 88.0425 2.50018ZM70.8473 3.44141L71.2217 1.66306L70.8473 1.66L69.5015 1.64902L69.4799 1.73443C69.5488 1.75971 69.6101 1.8035 69.6646 1.85725C69.7518 1.94343 69.8131 2.04965 69.8131 2.17503C69.8131 2.25265 69.7994 2.33117 69.7636 2.40063L66.259 9.20111C66.2305 9.25626 66.2131 9.31665 66.2131 9.37908C66.2131 9.46437 66.2444 9.52731 66.3106 9.58068C66.3939 9.64783 66.5036 9.6666 66.6079 9.6666H69.1092L69.1262 9.58808C69.0661 9.57212 69.0096 9.54455 68.9578 9.50535C68.8701 9.43883 68.8126 9.35023 68.8126 9.23788C68.8126 9.17085 68.819 9.09412 68.8495 9.03335L69.3677 7.99894H69.8711L70.1629 6.61255H69.79L70.4285 5.43094L70.8473 3.44141ZM74.0715 9.08719L73.5211 2.12176C73.5101 1.98438 73.4668 1.86284 73.3576 1.77449C73.2458 1.68422 73.1157 1.64899 72.9732 1.64899H71.7061L70.9369 5.47904L71.1114 6.61251H70.748L70.4726 7.99891H70.9967L71.0283 9.31011C71.037 9.40906 71.067 9.52409 71.1528 9.58461C71.2532 9.65534 71.4363 9.66657 71.5544 9.66657H74.5432L74.5608 9.58856C74.4625 9.56431 74.3718 9.514 74.2907 9.45068C74.1734 9.35901 74.0835 9.23976 74.0715 9.08719ZM81.2437 3.36847H80.3402C80.228 3.36847 80.1056 3.38111 80.0009 3.42401C79.9155 3.45912 79.8372 3.50738 79.7719 3.57351C79.6977 3.64871 79.6338 3.73629 79.5776 3.82579C79.4916 3.9624 79.4067 4.0994 79.3216 4.23664L79.2907 4.28682H78.9517L78.9884 4.15276C79.02 4.03696 79.0542 3.89588 79.0542 3.77536C79.0542 3.48797 78.8198 3.43805 78.5741 3.43805H76.0149L75.9967 3.5218C76.0616 3.54453 76.1198 3.58385 76.1708 3.63428C76.2621 3.72429 76.3078 3.83588 76.3078 3.96419C76.3078 4.04437 76.3013 4.12659 76.2831 4.20472L75.115 9.22226C75.0987 9.29197 75.08 9.37687 75.08 9.44862C75.08 9.5108 75.1034 9.55855 75.1504 9.59889C75.2084 9.64894 75.2799 9.66656 75.3554 9.66656H78.2543L78.2779 9.57885C78.2125 9.5528 78.1549 9.50863 78.1051 9.45539C78.0205 9.36474 77.9674 9.25418 77.9674 9.12855C77.9674 9.06177 77.9669 8.97853 77.9821 8.91355L78.7331 5.6953C78.8179 5.33182 79.1589 5.23172 79.4938 5.23172H80.0064C80.3838 5.23172 80.8297 5.13776 80.9285 4.71529L81.1675 3.69416L81.2437 3.36847Z" fill="#0B56A0"/>
</svg>
