<svg width="16" height="16" viewBox="0 0 16 16" fill="none" xmlns="http://www.w3.org/2000/svg">
<path d="M9 11.5H8.5V7.03125V7.01562V7C8.5 6.86458 8.44792 6.75 8.34375 6.65625C8.25 6.55208 8.13542 6.5 8 6.5H7C6.86458 6.5 6.74479 6.55208 6.64062 6.65625C6.54688 6.75 6.5 6.86458 6.5 7C6.5 7.13542 6.54688 7.25521 6.64062 7.35938C6.74479 7.45312 6.86458 7.5 7 7.5H7.5V11.5H7C6.86458 11.5 6.74479 11.5521 6.64062 11.6562C6.54688 11.75 6.5 11.8646 6.5 12C6.5 12.1354 6.54688 12.2552 6.64062 12.3594C6.74479 12.4531 6.86458 12.5 7 12.5H9C9.13542 12.5 9.25 12.4531 9.34375 12.3594C9.44792 12.2552 9.5 12.1354 9.5 12C9.5 11.8646 9.44792 11.75 9.34375 11.6562C9.25 11.5521 9.13542 11.5 9 11.5ZM7.28125 5.21875C7.47917 5.40625 7.71875 5.5 8 5.5C8.28125 5.5 8.51562 5.40625 8.70312 5.21875C8.90104 5.02083 9 4.78125 9 4.5C9 4.21875 8.90104 3.98438 8.70312 3.79688C8.51562 3.59896 8.28125 3.5 8 3.5C7.71875 3.5 7.47917 3.59896 7.28125 3.79688C7.09375 3.98438 7 4.21875 7 4.5C7 4.78125 7.09375 5.02083 7.28125 5.21875ZM10.5156 0.40625C9.70312 0.135417 8.86458 0 8 0C7.13542 0 6.29167 0.135417 5.46875 0.40625C4.65625 0.677083 3.92188 1.05729 3.26562 1.54688C2.60938 2.03646 2.03646 2.60938 1.54688 3.26562C1.05729 3.92188 0.677083 4.66146 0.40625 5.48438C0.135417 6.29688 0 7.13542 0 8C0 9.08333 0.208333 10.1198 0.625 11.1094C1.05208 12.099 1.61979 12.9531 2.32812 13.6719C3.04688 14.3802 3.90104 14.9427 4.89062 15.3594C5.88021 15.7865 6.91667 16 8 16C9.08333 16 10.1198 15.7865 11.1094 15.3594C12.099 14.9427 12.9479 14.3802 13.6562 13.6719C14.375 12.9531 14.9427 12.099 15.3594 11.1094C15.7865 10.1198 16 9.08333 16 8C16 7.13542 15.8646 6.29688 15.5938 5.48438C15.3229 4.66146 14.9427 3.92188 14.4531 3.26562C13.9635 2.60938 13.3906 2.03646 12.7344 1.54688C12.0781 1.05729 11.3385 0.677083 10.5156 0.40625ZM8 15.0156C7.23958 15.0156 6.5 14.901 5.78125 14.6719C5.07292 14.4323 4.43229 14.0938 3.85938 13.6562C3.28646 13.2188 2.78125 12.7135 2.34375 12.1406C1.91667 11.5677 1.58333 10.9271 1.34375 10.2188C1.11458 9.5 1 8.76042 1 8C1 7.05208 1.18229 6.14583 1.54688 5.28125C1.92188 4.41667 2.42188 3.67188 3.04688 3.04688C3.67188 2.42188 4.41667 1.92708 5.28125 1.5625C6.14583 1.1875 7.05208 1 8 1C8.94792 1 9.85417 1.1875 10.7188 1.5625C11.5833 1.92708 12.3281 2.42188 12.9531 3.04688C13.5781 3.67188 14.0729 4.41667 14.4375 5.28125C14.8125 6.14583 15 7.05208 15 8C15 8.94792 14.8125 9.85417 14.4375 10.7188C14.0729 11.5833 13.5781 12.3333 12.9531 12.9688C12.3281 13.5938 11.5833 14.0938 10.7188 14.4688C9.85417 14.8333 8.94792 15.0156 8 15.0156Z" fill="#707982"/>
</svg>
